<svg width="60" height="60" viewBox="0 0 60 60" fill="none" xmlns="http://www.w3.org/2000/svg"
    style='width: 60px; height: 60px'>
    <path opacity="0.21" fill-rule="evenodd" clip-rule="evenodd"
        d="M0 30V37C0 49.7025 10.2975 60 23 60H30H37C49.7025 60 60 49.7025 60 37V30V23C60 10.2975 49.7025 0 37 0H30H23C10.2975 0 0 10.2975 0 23V30Z"
        fill="#FEC53D" />
    <path fill-rule="evenodd" clip-rule="evenodd"
        d="M15 24.3165L27.9005 31.7646C28.0394 31.8448 28.1851 31.9027 28.3333 31.9395V46.3847L15.9201 39.0385C15.3498 38.701 15 38.0876 15 37.4249V24.3165ZM45 24.1185V37.4249C45 38.0876 44.6502 38.701 44.0799 39.0385L31.6667 46.3847V31.8129C31.6969 31.7978 31.7269 31.7817 31.7566 31.7646L45 24.1185Z"
        fill="#FEC53D" />
    <path opacity="0.499209" fill-rule="evenodd" clip-rule="evenodd"
        d="M15.4063 20.7014C15.5638 20.5024 15.7627 20.3343 15.9946 20.2108L29.1196 13.2201C29.6706 12.9266 30.3315 12.9266 30.8825 13.2201L44.0075 20.2108C44.1862 20.306 44.3454 20.4277 44.4811 20.5697L30.0909 28.8778C29.9963 28.9325 29.9091 28.995 29.8296 29.064C29.75 28.995 29.6628 28.9325 29.5682 28.8778L15.4063 20.7014Z"
        fill="#FEC53D" />
</svg>